<mxfile host="app.diagrams.net" modified="2024-03-07T19:48:39.290Z" agent="Mozilla/5.0 (Windows NT 10.0; Win64; x64) AppleWebKit/537.36 (KHTML, like Gecko) Chrome/122.0.0.0 Safari/537.36" etag="dFNPl8UNUxgCzsV6zUfk" version="24.0.2" type="device">
  <diagram name="Page-1" id="3e9S-j_wxFKudtdHdHgr">
    <mxGraphModel dx="1434" dy="746" grid="1" gridSize="10" guides="1" tooltips="1" connect="1" arrows="1" fold="1" page="1" pageScale="1" pageWidth="850" pageHeight="1100" math="0" shadow="0">
      <root>
        <mxCell id="0" />
        <mxCell id="1" parent="0" />
        <mxCell id="-P6UkHg5Pwaap4I-NPSZ-1" value="«interface»&lt;br&gt;&lt;b&gt;FactoryMethod&lt;/b&gt;" style="html=1;whiteSpace=wrap;fillColor=#b1ddf0;strokeColor=#10739e;strokeWidth=2;" vertex="1" parent="1">
          <mxGeometry x="195" y="250" width="110" height="50" as="geometry" />
        </mxCell>
        <mxCell id="-P6UkHg5Pwaap4I-NPSZ-21" style="edgeStyle=orthogonalEdgeStyle;rounded=0;orthogonalLoop=1;jettySize=auto;html=1;entryX=0.5;entryY=1;entryDx=0;entryDy=0;fillColor=#b1ddf0;strokeColor=#10739e;strokeWidth=2;" edge="1" parent="1" source="-P6UkHg5Pwaap4I-NPSZ-3" target="-P6UkHg5Pwaap4I-NPSZ-1">
          <mxGeometry relative="1" as="geometry" />
        </mxCell>
        <mxCell id="-P6UkHg5Pwaap4I-NPSZ-50" style="edgeStyle=orthogonalEdgeStyle;rounded=0;orthogonalLoop=1;jettySize=auto;html=1;strokeColor=#10739e;strokeWidth=2;fillColor=#b1ddf0;" edge="1" parent="1" source="-P6UkHg5Pwaap4I-NPSZ-3" target="-P6UkHg5Pwaap4I-NPSZ-28">
          <mxGeometry relative="1" as="geometry" />
        </mxCell>
        <mxCell id="-P6UkHg5Pwaap4I-NPSZ-3" value="FabricaNike" style="swimlane;fontStyle=1;align=center;verticalAlign=top;childLayout=stackLayout;horizontal=1;startSize=26;horizontalStack=0;resizeParent=1;resizeParentMax=0;resizeLast=0;collapsible=1;marginBottom=0;whiteSpace=wrap;html=1;fillColor=#b1ddf0;strokeColor=#10739e;strokeWidth=2;" vertex="1" parent="1">
          <mxGeometry x="130" y="380" width="240" height="58" as="geometry" />
        </mxCell>
        <mxCell id="-P6UkHg5Pwaap4I-NPSZ-6" value="+ createTeamCamisa(): Camisa" style="text;align=left;verticalAlign=top;spacingLeft=4;spacingRight=4;overflow=hidden;rotatable=0;points=[[0,0.5],[1,0.5]];portConstraint=eastwest;whiteSpace=wrap;html=1;fillColor=#b1ddf0;strokeColor=#10739e;strokeWidth=2;" vertex="1" parent="-P6UkHg5Pwaap4I-NPSZ-3">
          <mxGeometry y="26" width="240" height="32" as="geometry" />
        </mxCell>
        <mxCell id="-P6UkHg5Pwaap4I-NPSZ-22" style="edgeStyle=orthogonalEdgeStyle;rounded=0;orthogonalLoop=1;jettySize=auto;html=1;entryX=0;entryY=0.5;entryDx=0;entryDy=0;fillColor=#b1ddf0;strokeColor=#10739e;strokeWidth=2;" edge="1" parent="1" source="-P6UkHg5Pwaap4I-NPSZ-8" target="-P6UkHg5Pwaap4I-NPSZ-1">
          <mxGeometry relative="1" as="geometry">
            <Array as="points">
              <mxPoint x="110" y="490" />
              <mxPoint x="110" y="275" />
            </Array>
          </mxGeometry>
        </mxCell>
        <mxCell id="-P6UkHg5Pwaap4I-NPSZ-51" style="edgeStyle=orthogonalEdgeStyle;rounded=0;orthogonalLoop=1;jettySize=auto;html=1;strokeColor=#10739e;strokeWidth=2;fillColor=#b1ddf0;" edge="1" parent="1" source="-P6UkHg5Pwaap4I-NPSZ-8" target="-P6UkHg5Pwaap4I-NPSZ-32">
          <mxGeometry relative="1" as="geometry" />
        </mxCell>
        <mxCell id="-P6UkHg5Pwaap4I-NPSZ-8" value="FabricaAdidas" style="swimlane;fontStyle=1;align=center;verticalAlign=top;childLayout=stackLayout;horizontal=1;startSize=26;horizontalStack=0;resizeParent=1;resizeParentMax=0;resizeLast=0;collapsible=1;marginBottom=0;whiteSpace=wrap;html=1;fillColor=#b1ddf0;strokeColor=#10739e;strokeWidth=2;" vertex="1" parent="1">
          <mxGeometry x="130" y="460" width="240" height="52" as="geometry" />
        </mxCell>
        <mxCell id="-P6UkHg5Pwaap4I-NPSZ-9" value="+ createTeamCamisa(): Camisa" style="text;align=left;verticalAlign=top;spacingLeft=4;spacingRight=4;overflow=hidden;rotatable=0;points=[[0,0.5],[1,0.5]];portConstraint=eastwest;whiteSpace=wrap;html=1;fillColor=#b1ddf0;strokeColor=#10739e;strokeWidth=2;" vertex="1" parent="-P6UkHg5Pwaap4I-NPSZ-8">
          <mxGeometry y="26" width="240" height="26" as="geometry" />
        </mxCell>
        <mxCell id="-P6UkHg5Pwaap4I-NPSZ-54" style="edgeStyle=orthogonalEdgeStyle;rounded=0;orthogonalLoop=1;jettySize=auto;html=1;strokeColor=#10739e;strokeWidth=2;fillColor=#b1ddf0;" edge="1" parent="1" source="-P6UkHg5Pwaap4I-NPSZ-10" target="-P6UkHg5Pwaap4I-NPSZ-44">
          <mxGeometry relative="1" as="geometry">
            <Array as="points">
              <mxPoint x="530" y="706" />
              <mxPoint x="530" y="809" />
            </Array>
          </mxGeometry>
        </mxCell>
        <mxCell id="-P6UkHg5Pwaap4I-NPSZ-10" value="FabricaPuma&lt;div&gt;&lt;br&gt;&lt;/div&gt;" style="swimlane;fontStyle=1;align=center;verticalAlign=top;childLayout=stackLayout;horizontal=1;startSize=26;horizontalStack=0;resizeParent=1;resizeParentMax=0;resizeLast=0;collapsible=1;marginBottom=0;whiteSpace=wrap;html=1;fillColor=#b1ddf0;strokeColor=#10739e;strokeWidth=2;" vertex="1" parent="1">
          <mxGeometry x="130" y="680" width="240" height="52" as="geometry" />
        </mxCell>
        <mxCell id="-P6UkHg5Pwaap4I-NPSZ-11" value="+ createTeamCamisa(): Camisa" style="text;align=left;verticalAlign=top;spacingLeft=4;spacingRight=4;overflow=hidden;rotatable=0;points=[[0,0.5],[1,0.5]];portConstraint=eastwest;whiteSpace=wrap;html=1;fillColor=#b1ddf0;strokeColor=#10739e;strokeWidth=2;" vertex="1" parent="-P6UkHg5Pwaap4I-NPSZ-10">
          <mxGeometry y="26" width="240" height="26" as="geometry" />
        </mxCell>
        <mxCell id="-P6UkHg5Pwaap4I-NPSZ-52" style="edgeStyle=orthogonalEdgeStyle;rounded=0;orthogonalLoop=1;jettySize=auto;html=1;strokeColor=#10739e;strokeWidth=2;fillColor=#b1ddf0;" edge="1" parent="1" source="-P6UkHg5Pwaap4I-NPSZ-12" target="-P6UkHg5Pwaap4I-NPSZ-36">
          <mxGeometry relative="1" as="geometry" />
        </mxCell>
        <mxCell id="-P6UkHg5Pwaap4I-NPSZ-12" value="FabricaKappa" style="swimlane;fontStyle=1;align=center;verticalAlign=top;childLayout=stackLayout;horizontal=1;startSize=26;horizontalStack=0;resizeParent=1;resizeParentMax=0;resizeLast=0;collapsible=1;marginBottom=0;whiteSpace=wrap;html=1;fillColor=#b1ddf0;strokeColor=#10739e;strokeWidth=2;" vertex="1" parent="1">
          <mxGeometry x="130" y="540" width="240" height="52" as="geometry" />
        </mxCell>
        <mxCell id="-P6UkHg5Pwaap4I-NPSZ-13" value="+ createTeamCamisa(): Camisa" style="text;align=left;verticalAlign=top;spacingLeft=4;spacingRight=4;overflow=hidden;rotatable=0;points=[[0,0.5],[1,0.5]];portConstraint=eastwest;whiteSpace=wrap;html=1;fillColor=#b1ddf0;strokeColor=#10739e;strokeWidth=2;" vertex="1" parent="-P6UkHg5Pwaap4I-NPSZ-12">
          <mxGeometry y="26" width="240" height="26" as="geometry" />
        </mxCell>
        <mxCell id="-P6UkHg5Pwaap4I-NPSZ-25" style="edgeStyle=orthogonalEdgeStyle;rounded=0;orthogonalLoop=1;jettySize=auto;html=1;entryX=0;entryY=0.5;entryDx=0;entryDy=0;fillColor=#b1ddf0;strokeColor=#10739e;strokeWidth=2;" edge="1" parent="1" source="-P6UkHg5Pwaap4I-NPSZ-14" target="-P6UkHg5Pwaap4I-NPSZ-1">
          <mxGeometry relative="1" as="geometry">
            <Array as="points">
              <mxPoint x="110" y="636" />
              <mxPoint x="110" y="275" />
            </Array>
          </mxGeometry>
        </mxCell>
        <mxCell id="-P6UkHg5Pwaap4I-NPSZ-53" style="edgeStyle=orthogonalEdgeStyle;rounded=0;orthogonalLoop=1;jettySize=auto;html=1;strokeColor=#10739e;strokeWidth=2;fillColor=#b1ddf0;" edge="1" parent="1" source="-P6UkHg5Pwaap4I-NPSZ-14" target="-P6UkHg5Pwaap4I-NPSZ-40">
          <mxGeometry relative="1" as="geometry">
            <Array as="points">
              <mxPoint x="570" y="640" />
              <mxPoint x="570" y="709" />
            </Array>
          </mxGeometry>
        </mxCell>
        <mxCell id="-P6UkHg5Pwaap4I-NPSZ-14" value="FabricaUmbro" style="swimlane;fontStyle=1;align=center;verticalAlign=top;childLayout=stackLayout;horizontal=1;startSize=26;horizontalStack=0;resizeParent=1;resizeParentMax=0;resizeLast=0;collapsible=1;marginBottom=0;whiteSpace=wrap;html=1;fillColor=#b1ddf0;strokeColor=#10739e;strokeWidth=2;" vertex="1" parent="1">
          <mxGeometry x="130" y="610" width="240" height="52" as="geometry" />
        </mxCell>
        <mxCell id="-P6UkHg5Pwaap4I-NPSZ-15" value="+ createTeamCamisa(): Camisa" style="text;align=left;verticalAlign=top;spacingLeft=4;spacingRight=4;overflow=hidden;rotatable=0;points=[[0,0.5],[1,0.5]];portConstraint=eastwest;whiteSpace=wrap;html=1;fillColor=#b1ddf0;strokeColor=#10739e;strokeWidth=2;" vertex="1" parent="-P6UkHg5Pwaap4I-NPSZ-14">
          <mxGeometry y="26" width="240" height="26" as="geometry" />
        </mxCell>
        <mxCell id="-P6UkHg5Pwaap4I-NPSZ-23" style="edgeStyle=orthogonalEdgeStyle;rounded=0;orthogonalLoop=1;jettySize=auto;html=1;entryX=0;entryY=0.5;entryDx=0;entryDy=0;fillColor=#b1ddf0;strokeColor=#10739e;strokeWidth=2;" edge="1" parent="1" source="-P6UkHg5Pwaap4I-NPSZ-13" target="-P6UkHg5Pwaap4I-NPSZ-1">
          <mxGeometry relative="1" as="geometry" />
        </mxCell>
        <mxCell id="-P6UkHg5Pwaap4I-NPSZ-26" style="edgeStyle=orthogonalEdgeStyle;rounded=0;orthogonalLoop=1;jettySize=auto;html=1;entryX=0;entryY=0.5;entryDx=0;entryDy=0;fillColor=#b1ddf0;strokeColor=#10739e;strokeWidth=2;" edge="1" parent="1" source="-P6UkHg5Pwaap4I-NPSZ-11" target="-P6UkHg5Pwaap4I-NPSZ-1">
          <mxGeometry relative="1" as="geometry" />
        </mxCell>
        <mxCell id="-P6UkHg5Pwaap4I-NPSZ-27" value="«interface»&lt;br&gt;&lt;b&gt;Camisa&lt;/b&gt;" style="html=1;whiteSpace=wrap;fillColor=#b1ddf0;strokeColor=#10739e;strokeWidth=2;" vertex="1" parent="1">
          <mxGeometry x="650" y="240" width="110" height="50" as="geometry" />
        </mxCell>
        <mxCell id="-P6UkHg5Pwaap4I-NPSZ-55" style="edgeStyle=orthogonalEdgeStyle;rounded=0;orthogonalLoop=1;jettySize=auto;html=1;strokeColor=#10739e;strokeWidth=2;fillColor=#b1ddf0;" edge="1" parent="1" source="-P6UkHg5Pwaap4I-NPSZ-28" target="-P6UkHg5Pwaap4I-NPSZ-27">
          <mxGeometry relative="1" as="geometry" />
        </mxCell>
        <mxCell id="-P6UkHg5Pwaap4I-NPSZ-28" value="CamisaNikeBrasil" style="swimlane;fontStyle=1;align=center;verticalAlign=top;childLayout=stackLayout;horizontal=1;startSize=26;horizontalStack=0;resizeParent=1;resizeParentMax=0;resizeLast=0;collapsible=1;marginBottom=0;whiteSpace=wrap;html=1;fillColor=#b1ddf0;strokeColor=#10739e;strokeWidth=2;" vertex="1" parent="1">
          <mxGeometry x="625" y="366" width="160" height="78" as="geometry" />
        </mxCell>
        <mxCell id="-P6UkHg5Pwaap4I-NPSZ-29" value="+&amp;nbsp;showTeamInfo(): void" style="text;align=left;verticalAlign=top;spacingLeft=4;spacingRight=4;overflow=hidden;rotatable=0;points=[[0,0.5],[1,0.5]];portConstraint=eastwest;whiteSpace=wrap;html=1;fillColor=#b1ddf0;strokeColor=#10739e;strokeWidth=2;" vertex="1" parent="-P6UkHg5Pwaap4I-NPSZ-28">
          <mxGeometry y="26" width="160" height="26" as="geometry" />
        </mxCell>
        <mxCell id="-P6UkHg5Pwaap4I-NPSZ-31" value="+ showFabricInfo(): void" style="text;align=left;verticalAlign=top;spacingLeft=4;spacingRight=4;overflow=hidden;rotatable=0;points=[[0,0.5],[1,0.5]];portConstraint=eastwest;whiteSpace=wrap;html=1;fillColor=#b1ddf0;strokeColor=#10739e;strokeWidth=2;" vertex="1" parent="-P6UkHg5Pwaap4I-NPSZ-28">
          <mxGeometry y="52" width="160" height="26" as="geometry" />
        </mxCell>
        <mxCell id="-P6UkHg5Pwaap4I-NPSZ-56" style="edgeStyle=orthogonalEdgeStyle;rounded=0;orthogonalLoop=1;jettySize=auto;html=1;strokeColor=#10739e;strokeWidth=2;fillColor=#b1ddf0;" edge="1" parent="1" source="-P6UkHg5Pwaap4I-NPSZ-32" target="-P6UkHg5Pwaap4I-NPSZ-27">
          <mxGeometry relative="1" as="geometry">
            <Array as="points">
              <mxPoint x="820" y="509" />
              <mxPoint x="820" y="265" />
            </Array>
          </mxGeometry>
        </mxCell>
        <mxCell id="-P6UkHg5Pwaap4I-NPSZ-32" value="CamisaAdidasFlamengo" style="swimlane;fontStyle=1;align=center;verticalAlign=top;childLayout=stackLayout;horizontal=1;startSize=26;horizontalStack=0;resizeParent=1;resizeParentMax=0;resizeLast=0;collapsible=1;marginBottom=0;whiteSpace=wrap;html=1;fillColor=#b1ddf0;strokeColor=#10739e;strokeWidth=2;" vertex="1" parent="1">
          <mxGeometry x="625" y="470" width="160" height="78" as="geometry" />
        </mxCell>
        <mxCell id="-P6UkHg5Pwaap4I-NPSZ-33" value="+&amp;nbsp;showTeamInfo(): void" style="text;align=left;verticalAlign=top;spacingLeft=4;spacingRight=4;overflow=hidden;rotatable=0;points=[[0,0.5],[1,0.5]];portConstraint=eastwest;whiteSpace=wrap;html=1;fillColor=#b1ddf0;strokeColor=#10739e;strokeWidth=2;" vertex="1" parent="-P6UkHg5Pwaap4I-NPSZ-32">
          <mxGeometry y="26" width="160" height="26" as="geometry" />
        </mxCell>
        <mxCell id="-P6UkHg5Pwaap4I-NPSZ-35" value="+ showFabricInfo(): void" style="text;align=left;verticalAlign=top;spacingLeft=4;spacingRight=4;overflow=hidden;rotatable=0;points=[[0,0.5],[1,0.5]];portConstraint=eastwest;whiteSpace=wrap;html=1;fillColor=#b1ddf0;strokeColor=#10739e;strokeWidth=2;" vertex="1" parent="-P6UkHg5Pwaap4I-NPSZ-32">
          <mxGeometry y="52" width="160" height="26" as="geometry" />
        </mxCell>
        <mxCell id="-P6UkHg5Pwaap4I-NPSZ-57" style="edgeStyle=orthogonalEdgeStyle;rounded=0;orthogonalLoop=1;jettySize=auto;html=1;strokeColor=#10739e;strokeWidth=2;fillColor=#b1ddf0;" edge="1" parent="1" source="-P6UkHg5Pwaap4I-NPSZ-36" target="-P6UkHg5Pwaap4I-NPSZ-27">
          <mxGeometry relative="1" as="geometry">
            <Array as="points">
              <mxPoint x="820" y="609" />
              <mxPoint x="820" y="265" />
            </Array>
          </mxGeometry>
        </mxCell>
        <mxCell id="-P6UkHg5Pwaap4I-NPSZ-36" value="CamisaKappaVasco" style="swimlane;fontStyle=1;align=center;verticalAlign=top;childLayout=stackLayout;horizontal=1;startSize=26;horizontalStack=0;resizeParent=1;resizeParentMax=0;resizeLast=0;collapsible=1;marginBottom=0;whiteSpace=wrap;html=1;fillColor=#b1ddf0;strokeColor=#10739e;strokeWidth=2;" vertex="1" parent="1">
          <mxGeometry x="625" y="570" width="160" height="78" as="geometry" />
        </mxCell>
        <mxCell id="-P6UkHg5Pwaap4I-NPSZ-37" value="+&amp;nbsp;showTeamInfo(): void" style="text;align=left;verticalAlign=top;spacingLeft=4;spacingRight=4;overflow=hidden;rotatable=0;points=[[0,0.5],[1,0.5]];portConstraint=eastwest;whiteSpace=wrap;html=1;fillColor=#b1ddf0;strokeColor=#10739e;strokeWidth=2;" vertex="1" parent="-P6UkHg5Pwaap4I-NPSZ-36">
          <mxGeometry y="26" width="160" height="26" as="geometry" />
        </mxCell>
        <mxCell id="-P6UkHg5Pwaap4I-NPSZ-39" value="+ showFabricInfo(): void" style="text;align=left;verticalAlign=top;spacingLeft=4;spacingRight=4;overflow=hidden;rotatable=0;points=[[0,0.5],[1,0.5]];portConstraint=eastwest;whiteSpace=wrap;html=1;fillColor=#b1ddf0;strokeColor=#10739e;strokeWidth=2;" vertex="1" parent="-P6UkHg5Pwaap4I-NPSZ-36">
          <mxGeometry y="52" width="160" height="26" as="geometry" />
        </mxCell>
        <mxCell id="-P6UkHg5Pwaap4I-NPSZ-58" style="edgeStyle=orthogonalEdgeStyle;rounded=0;orthogonalLoop=1;jettySize=auto;html=1;strokeColor=#10739e;strokeWidth=2;fillColor=#b1ddf0;" edge="1" parent="1" source="-P6UkHg5Pwaap4I-NPSZ-40" target="-P6UkHg5Pwaap4I-NPSZ-27">
          <mxGeometry relative="1" as="geometry">
            <Array as="points">
              <mxPoint x="820" y="709" />
              <mxPoint x="820" y="265" />
            </Array>
          </mxGeometry>
        </mxCell>
        <mxCell id="-P6UkHg5Pwaap4I-NPSZ-40" value="CamisaUmbroFluminense" style="swimlane;fontStyle=1;align=center;verticalAlign=top;childLayout=stackLayout;horizontal=1;startSize=26;horizontalStack=0;resizeParent=1;resizeParentMax=0;resizeLast=0;collapsible=1;marginBottom=0;whiteSpace=wrap;html=1;fillColor=#b1ddf0;strokeColor=#10739e;strokeWidth=2;" vertex="1" parent="1">
          <mxGeometry x="625" y="670" width="160" height="78" as="geometry" />
        </mxCell>
        <mxCell id="-P6UkHg5Pwaap4I-NPSZ-41" value="+&amp;nbsp;showTeamInfo(): void" style="text;align=left;verticalAlign=top;spacingLeft=4;spacingRight=4;overflow=hidden;rotatable=0;points=[[0,0.5],[1,0.5]];portConstraint=eastwest;whiteSpace=wrap;html=1;fillColor=#b1ddf0;strokeColor=#10739e;strokeWidth=2;" vertex="1" parent="-P6UkHg5Pwaap4I-NPSZ-40">
          <mxGeometry y="26" width="160" height="26" as="geometry" />
        </mxCell>
        <mxCell id="-P6UkHg5Pwaap4I-NPSZ-43" value="+ showFabricInfo(): void" style="text;align=left;verticalAlign=top;spacingLeft=4;spacingRight=4;overflow=hidden;rotatable=0;points=[[0,0.5],[1,0.5]];portConstraint=eastwest;whiteSpace=wrap;html=1;fillColor=#b1ddf0;strokeColor=#10739e;strokeWidth=2;" vertex="1" parent="-P6UkHg5Pwaap4I-NPSZ-40">
          <mxGeometry y="52" width="160" height="26" as="geometry" />
        </mxCell>
        <mxCell id="-P6UkHg5Pwaap4I-NPSZ-59" style="edgeStyle=orthogonalEdgeStyle;rounded=0;orthogonalLoop=1;jettySize=auto;html=1;strokeColor=#10739e;strokeWidth=2;fillColor=#b1ddf0;" edge="1" parent="1" source="-P6UkHg5Pwaap4I-NPSZ-44" target="-P6UkHg5Pwaap4I-NPSZ-27">
          <mxGeometry relative="1" as="geometry">
            <Array as="points">
              <mxPoint x="820" y="809" />
              <mxPoint x="820" y="265" />
            </Array>
          </mxGeometry>
        </mxCell>
        <mxCell id="-P6UkHg5Pwaap4I-NPSZ-44" value="CamisaPumaBotafogo" style="swimlane;fontStyle=1;align=center;verticalAlign=top;childLayout=stackLayout;horizontal=1;startSize=26;horizontalStack=0;resizeParent=1;resizeParentMax=0;resizeLast=0;collapsible=1;marginBottom=0;whiteSpace=wrap;html=1;fillColor=#b1ddf0;strokeColor=#10739e;strokeWidth=2;" vertex="1" parent="1">
          <mxGeometry x="625" y="770" width="160" height="78" as="geometry" />
        </mxCell>
        <mxCell id="-P6UkHg5Pwaap4I-NPSZ-45" value="+&amp;nbsp;showTeamInfo(): void" style="text;align=left;verticalAlign=top;spacingLeft=4;spacingRight=4;overflow=hidden;rotatable=0;points=[[0,0.5],[1,0.5]];portConstraint=eastwest;whiteSpace=wrap;html=1;fillColor=#b1ddf0;strokeColor=#10739e;strokeWidth=2;" vertex="1" parent="-P6UkHg5Pwaap4I-NPSZ-44">
          <mxGeometry y="26" width="160" height="26" as="geometry" />
        </mxCell>
        <mxCell id="-P6UkHg5Pwaap4I-NPSZ-47" value="+ showFabricInfo(): void" style="text;align=left;verticalAlign=top;spacingLeft=4;spacingRight=4;overflow=hidden;rotatable=0;points=[[0,0.5],[1,0.5]];portConstraint=eastwest;whiteSpace=wrap;html=1;fillColor=#b1ddf0;strokeColor=#10739e;strokeWidth=2;" vertex="1" parent="-P6UkHg5Pwaap4I-NPSZ-44">
          <mxGeometry y="52" width="160" height="26" as="geometry" />
        </mxCell>
        <mxCell id="-P6UkHg5Pwaap4I-NPSZ-60" style="edgeStyle=orthogonalEdgeStyle;rounded=0;orthogonalLoop=1;jettySize=auto;html=1;strokeColor=#00CC00;strokeWidth=2;" edge="1" parent="1" source="-P6UkHg5Pwaap4I-NPSZ-48" target="-P6UkHg5Pwaap4I-NPSZ-3">
          <mxGeometry relative="1" as="geometry">
            <Array as="points">
              <mxPoint x="80" y="150" />
              <mxPoint x="80" y="409" />
            </Array>
          </mxGeometry>
        </mxCell>
        <mxCell id="-P6UkHg5Pwaap4I-NPSZ-61" style="edgeStyle=orthogonalEdgeStyle;rounded=0;orthogonalLoop=1;jettySize=auto;html=1;strokeColor=#00CC00;strokeWidth=2;" edge="1" parent="1" source="-P6UkHg5Pwaap4I-NPSZ-48" target="-P6UkHg5Pwaap4I-NPSZ-8">
          <mxGeometry relative="1" as="geometry">
            <Array as="points">
              <mxPoint x="80" y="150" />
              <mxPoint x="80" y="486" />
            </Array>
          </mxGeometry>
        </mxCell>
        <mxCell id="-P6UkHg5Pwaap4I-NPSZ-62" style="edgeStyle=orthogonalEdgeStyle;rounded=0;orthogonalLoop=1;jettySize=auto;html=1;strokeColor=#00CC00;strokeWidth=2;" edge="1" parent="1" source="-P6UkHg5Pwaap4I-NPSZ-48" target="-P6UkHg5Pwaap4I-NPSZ-12">
          <mxGeometry relative="1" as="geometry">
            <Array as="points">
              <mxPoint x="80" y="150" />
              <mxPoint x="80" y="566" />
            </Array>
          </mxGeometry>
        </mxCell>
        <mxCell id="-P6UkHg5Pwaap4I-NPSZ-63" style="edgeStyle=orthogonalEdgeStyle;rounded=0;orthogonalLoop=1;jettySize=auto;html=1;strokeColor=#00CC00;strokeWidth=2;" edge="1" parent="1" source="-P6UkHg5Pwaap4I-NPSZ-48" target="-P6UkHg5Pwaap4I-NPSZ-14">
          <mxGeometry relative="1" as="geometry">
            <Array as="points">
              <mxPoint x="80" y="150" />
              <mxPoint x="80" y="636" />
            </Array>
          </mxGeometry>
        </mxCell>
        <mxCell id="-P6UkHg5Pwaap4I-NPSZ-64" style="edgeStyle=orthogonalEdgeStyle;rounded=0;orthogonalLoop=1;jettySize=auto;html=1;strokeColor=#00CC00;strokeWidth=2;" edge="1" parent="1" source="-P6UkHg5Pwaap4I-NPSZ-48" target="-P6UkHg5Pwaap4I-NPSZ-10">
          <mxGeometry relative="1" as="geometry">
            <Array as="points">
              <mxPoint x="80" y="150" />
              <mxPoint x="80" y="706" />
            </Array>
          </mxGeometry>
        </mxCell>
        <mxCell id="-P6UkHg5Pwaap4I-NPSZ-65" style="edgeStyle=orthogonalEdgeStyle;rounded=0;orthogonalLoop=1;jettySize=auto;html=1;strokeColor=#00CC00;strokeWidth=2;" edge="1" parent="1" source="-P6UkHg5Pwaap4I-NPSZ-48" target="-P6UkHg5Pwaap4I-NPSZ-28">
          <mxGeometry relative="1" as="geometry">
            <Array as="points">
              <mxPoint x="800" y="150" />
              <mxPoint x="800" y="405" />
            </Array>
          </mxGeometry>
        </mxCell>
        <mxCell id="-P6UkHg5Pwaap4I-NPSZ-66" style="edgeStyle=orthogonalEdgeStyle;rounded=0;orthogonalLoop=1;jettySize=auto;html=1;strokeColor=#00CC00;strokeWidth=2;" edge="1" parent="1" source="-P6UkHg5Pwaap4I-NPSZ-48" target="-P6UkHg5Pwaap4I-NPSZ-32">
          <mxGeometry relative="1" as="geometry">
            <Array as="points">
              <mxPoint x="800" y="150" />
              <mxPoint x="800" y="490" />
            </Array>
          </mxGeometry>
        </mxCell>
        <mxCell id="-P6UkHg5Pwaap4I-NPSZ-67" style="edgeStyle=orthogonalEdgeStyle;rounded=0;orthogonalLoop=1;jettySize=auto;html=1;entryX=1;entryY=0.25;entryDx=0;entryDy=0;strokeColor=#00CC00;strokeWidth=2;" edge="1" parent="1" source="-P6UkHg5Pwaap4I-NPSZ-48" target="-P6UkHg5Pwaap4I-NPSZ-36">
          <mxGeometry relative="1" as="geometry">
            <Array as="points">
              <mxPoint x="800" y="150" />
              <mxPoint x="800" y="590" />
            </Array>
          </mxGeometry>
        </mxCell>
        <mxCell id="-P6UkHg5Pwaap4I-NPSZ-68" style="edgeStyle=orthogonalEdgeStyle;rounded=0;orthogonalLoop=1;jettySize=auto;html=1;entryX=1;entryY=0.25;entryDx=0;entryDy=0;strokeColor=#00CC00;strokeWidth=2;" edge="1" parent="1" source="-P6UkHg5Pwaap4I-NPSZ-48" target="-P6UkHg5Pwaap4I-NPSZ-40">
          <mxGeometry relative="1" as="geometry">
            <Array as="points">
              <mxPoint x="800" y="150" />
              <mxPoint x="800" y="690" />
            </Array>
          </mxGeometry>
        </mxCell>
        <mxCell id="-P6UkHg5Pwaap4I-NPSZ-69" style="edgeStyle=orthogonalEdgeStyle;rounded=0;orthogonalLoop=1;jettySize=auto;html=1;entryX=1;entryY=0.25;entryDx=0;entryDy=0;strokeColor=#00CC00;strokeWidth=2;" edge="1" parent="1" source="-P6UkHg5Pwaap4I-NPSZ-48" target="-P6UkHg5Pwaap4I-NPSZ-44">
          <mxGeometry relative="1" as="geometry">
            <Array as="points">
              <mxPoint x="800" y="150" />
              <mxPoint x="800" y="790" />
            </Array>
          </mxGeometry>
        </mxCell>
        <mxCell id="-P6UkHg5Pwaap4I-NPSZ-48" value="User" style="shape=umlActor;verticalLabelPosition=bottom;verticalAlign=top;html=1;strokeColor=#00CC00;" vertex="1" parent="1">
          <mxGeometry x="460" y="120" width="30" height="60" as="geometry" />
        </mxCell>
      </root>
    </mxGraphModel>
  </diagram>
</mxfile>
